<svg width="184" height="14" viewBox="0 0 184 14" fill="none" xmlns="http://www.w3.org/2000/svg">
<path d="M0.471705 13.7406C0.358952 13.7406 0.264991 13.703 0.189822 13.6278C0.114653 13.5402 0.0770687 13.4462 0.0770687 13.346C0.0770687 13.2833 0.0833328 13.2269 0.0958609 13.1768L4.5684 1.09346C4.60599 0.955649 4.68115 0.836632 4.79391 0.736407C4.90666 0.636182 5.06326 0.586069 5.26371 0.586069H7.66911C7.86956 0.586069 8.02616 0.636182 8.13892 0.736407C8.25167 0.836632 8.32684 0.955649 8.36442 1.09346L12.837 13.1768C12.8495 13.2269 12.8558 13.2833 12.8558 13.346C12.8558 13.4462 12.8182 13.5402 12.743 13.6278C12.6678 13.703 12.5739 13.7406 12.4611 13.7406H10.5067C10.3188 13.7406 10.181 13.6968 10.0933 13.6091C10.0056 13.5214 9.94923 13.4399 9.92417 13.3648L9.11611 11.26H3.81671L3.00865 13.3648C2.98359 13.4399 2.92722 13.5214 2.83952 13.6091C2.75182 13.6968 2.61401 13.7406 2.42609 13.7406H0.471705ZM4.51203 8.83584H8.40201L6.46641 3.42369L4.51203 8.83584ZM14.7369 13.7406C14.5991 13.7406 14.4863 13.6968 14.3986 13.6091C14.3109 13.5214 14.2671 13.4086 14.2671 13.2708V0.867952C14.2671 0.730142 14.3109 0.61739 14.3986 0.529693C14.4863 0.441996 14.5991 0.398147 14.7369 0.398147H16.6161C16.7414 0.398147 16.8479 0.441996 16.9356 0.529693C17.0233 0.61739 17.0671 0.730142 17.0671 0.867952V13.2708C17.0671 13.4086 17.0233 13.5214 16.9356 13.6091C16.8479 13.6968 16.7414 13.7406 16.6161 13.7406H14.7369ZM19.9121 13.7406C19.7743 13.7406 19.6615 13.6968 19.5738 13.6091C19.4861 13.5214 19.4423 13.4086 19.4423 13.2708V0.867952C19.4423 0.730142 19.4861 0.61739 19.5738 0.529693C19.6615 0.441996 19.7743 0.398147 19.9121 0.398147H21.7913C21.9166 0.398147 22.0231 0.441996 22.1108 0.529693C22.1985 0.61739 22.2423 0.730142 22.2423 0.867952V13.2708C22.2423 13.4086 22.1985 13.5214 22.1108 13.6091C22.0231 13.6968 21.9166 13.7406 21.7913 13.7406H19.9121Z" fill="#E80000"/>
<path d="M29.4415 13.7406C29.3037 13.7406 29.1909 13.6968 29.1032 13.6091C29.0155 13.5214 28.9717 13.4086 28.9717 13.2708V1.05587C28.9717 0.918064 29.0155 0.805311 29.1032 0.717615C29.1909 0.629918 29.3037 0.586069 29.4415 0.586069H34.1583C35.4111 0.586069 36.4572 0.786519 37.2966 1.18742C38.136 1.57579 38.7749 2.15208 39.2134 2.9163C39.6644 3.66799 39.9025 4.60133 39.9275 5.71634C39.94 6.26757 39.9463 6.74991 39.9463 7.16333C39.9463 7.57676 39.94 8.05283 39.9275 8.59154C39.8899 9.75666 39.6582 10.7213 39.2322 11.4855C38.8062 12.2498 38.1798 12.8198 37.353 13.1956C36.5261 13.5589 35.4926 13.7406 34.2523 13.7406H29.4415ZM31.9596 11.3164H34.1583C34.7847 11.3164 35.2984 11.2224 35.6993 11.0345C36.1002 10.8466 36.3946 10.5522 36.5825 10.1513C36.783 9.73786 36.8894 9.20542 36.902 8.55396C36.9145 8.19064 36.9208 7.86491 36.9208 7.57676C36.9333 7.28862 36.9333 7.00047 36.9208 6.71232C36.9208 6.42418 36.9145 6.10471 36.902 5.75392C36.8769 4.81431 36.6326 4.12526 36.1691 3.68678C35.7181 3.23577 35.0165 3.01026 34.0644 3.01026H31.9596V11.3164ZM46.5609 13.9285C45.521 13.9285 44.6503 13.7594 43.9487 13.4211C43.2472 13.0703 42.7085 12.5755 42.3326 11.9366C41.9693 11.2976 41.7689 10.5522 41.7313 9.70028C41.7187 9.44972 41.7125 9.16783 41.7125 8.85463C41.7125 8.5289 41.7187 8.24702 41.7313 8.00898C41.7689 7.14454 41.9818 6.39912 42.3702 5.77271C42.7586 5.13378 43.3036 4.64518 44.0051 4.30692C44.7067 3.95613 45.5586 3.78074 46.5609 3.78074C47.5506 3.78074 48.3962 3.95613 49.0978 4.30692C49.7994 4.64518 50.3444 5.13378 50.7327 5.77271C51.1211 6.39912 51.3341 7.14454 51.3717 8.00898C51.3967 8.24702 51.4092 8.5289 51.4092 8.85463C51.4092 9.16783 51.3967 9.44972 51.3717 9.70028C51.3341 10.5522 51.1274 11.2976 50.7515 11.9366C50.3882 12.5755 49.8558 13.0703 49.1542 13.4211C48.4526 13.7594 47.5882 13.9285 46.5609 13.9285ZM46.5609 11.8614C47.1747 11.8614 47.6383 11.6735 47.9515 11.2976C48.2647 10.9092 48.4338 10.3455 48.4589 9.60632C48.4714 9.4184 48.4777 9.16783 48.4777 8.85463C48.4777 8.54143 48.4714 8.29087 48.4589 8.10294C48.4338 7.37631 48.2647 6.81881 47.9515 6.43044C47.6383 6.04207 47.1747 5.84788 46.5609 5.84788C45.947 5.84788 45.4772 6.04207 45.1514 6.43044C44.8382 6.81881 44.6691 7.37631 44.6441 8.10294C44.6315 8.29087 44.6253 8.54143 44.6253 8.85463C44.6253 9.16783 44.6315 9.4184 44.6441 9.60632C44.6691 10.3455 44.8382 10.9092 45.1514 11.2976C45.4772 11.6735 45.947 11.8614 46.5609 11.8614ZM57.7156 13.9285C56.8011 13.9285 55.993 13.7594 55.2914 13.4211C54.6024 13.0829 54.0574 12.5943 53.6565 11.9553C53.2556 11.3039 53.0364 10.5271 52.9988 9.62511C52.9863 9.42466 52.98 9.1741 52.98 8.87342C52.98 8.56022 52.9863 8.30339 52.9988 8.10294C53.0364 7.18839 53.2494 6.41165 53.6377 5.77271C54.0386 5.12125 54.5899 4.62639 55.2914 4.28813C55.993 3.94987 56.8011 3.78074 57.7156 3.78074C58.555 3.78074 59.2691 3.89976 59.858 4.13779C60.4468 4.3633 60.9291 4.65145 61.3049 5.00223C61.6808 5.35302 61.9564 5.7226 62.1318 6.11097C62.3197 6.48682 62.42 6.81881 62.4325 7.10696C62.445 7.23224 62.4012 7.34499 62.3009 7.44522C62.2132 7.53291 62.1067 7.57676 61.9815 7.57676H59.9707C59.8454 7.57676 59.7452 7.54544 59.67 7.4828C59.6074 7.40763 59.5447 7.30741 59.4821 7.18213C59.3067 6.74364 59.0812 6.43044 58.8056 6.24252C58.53 6.0546 58.1854 5.96063 57.772 5.96063C57.2083 5.96063 56.7635 6.14229 56.4378 6.50561C56.112 6.86892 55.9366 7.43269 55.9116 8.19691C55.8991 8.6855 55.8991 9.13025 55.9116 9.53115C55.9492 10.3079 56.1246 10.8717 56.4378 11.2224C56.7635 11.5732 57.2083 11.7486 57.772 11.7486C58.2105 11.7486 58.5613 11.6547 58.8244 11.4667C59.0875 11.2788 59.3067 10.9656 59.4821 10.5271C59.5322 10.4019 59.5949 10.3079 59.67 10.2453C59.7452 10.1701 59.8454 10.1325 59.9707 10.1325H61.9815C62.1067 10.1325 62.2132 10.1826 62.3009 10.2828C62.4012 10.3705 62.445 10.477 62.4325 10.6023C62.42 10.8153 62.3573 11.0658 62.2446 11.354C62.1443 11.6421 61.9752 11.9366 61.7372 12.2372C61.5117 12.5379 61.2173 12.8198 60.8539 13.0829C60.4906 13.3334 60.0459 13.5402 59.5197 13.703C59.006 13.8534 58.4047 13.9285 57.7156 13.9285ZM67.8649 13.9285C67.1383 13.9285 66.4931 13.7657 65.9293 13.4399C65.3781 13.1017 64.9458 12.6193 64.6326 11.9929C64.332 11.354 64.1816 10.5835 64.1816 9.68149V4.43847C64.1816 4.30066 64.2255 4.18791 64.3132 4.10021C64.4009 4.01251 64.5074 3.96866 64.6326 3.96866H66.6246C66.7624 3.96866 66.8752 4.01251 66.9629 4.10021C67.0506 4.18791 67.0944 4.30066 67.0944 4.43847V9.56873C67.0944 10.9719 67.7083 11.6735 68.936 11.6735C69.5249 11.6735 69.9884 11.4918 70.3267 11.1285C70.6775 10.7526 70.8528 10.2327 70.8528 9.56873V4.43847C70.8528 4.30066 70.8967 4.18791 70.9844 4.10021C71.0721 4.01251 71.1848 3.96866 71.3227 3.96866H73.3146C73.4399 3.96866 73.5464 4.01251 73.6341 4.10021C73.7218 4.18791 73.7656 4.30066 73.7656 4.43847V13.2708C73.7656 13.4086 73.7218 13.5214 73.6341 13.6091C73.5464 13.6968 73.4399 13.7406 73.3146 13.7406H71.473C71.3352 13.7406 71.2224 13.6968 71.1347 13.6091C71.047 13.5214 71.0032 13.4086 71.0032 13.2708V12.5379C70.6775 12.9889 70.2578 13.3334 69.7441 13.5715C69.2305 13.8095 68.604 13.9285 67.8649 13.9285ZM76.5818 13.7406C76.4565 13.7406 76.35 13.6968 76.2624 13.6091C76.1747 13.5214 76.1308 13.4086 76.1308 13.2708V4.43847C76.1308 4.30066 76.1747 4.18791 76.2624 4.10021C76.35 4.01251 76.4565 3.96866 76.5818 3.96866H78.3295C78.4548 3.96866 78.5613 4.01251 78.649 4.10021C78.7492 4.18791 78.7993 4.30066 78.7993 4.43847V5.0774C79.0499 4.72661 79.3944 4.42594 79.8329 4.17538C80.2839 3.92481 80.8163 3.79327 81.4302 3.78074C82.8835 3.75569 83.8795 4.30692 84.4182 5.43445C84.7063 4.94586 85.1197 4.55122 85.6584 4.25055C86.2097 3.93734 86.811 3.78074 87.4625 3.78074C88.114 3.78074 88.7028 3.93108 89.229 4.23175C89.7551 4.5199 90.1686 4.97091 90.4692 5.58479C90.7824 6.18614 90.9391 6.96289 90.9391 7.91502V13.2708C90.9391 13.4086 90.8952 13.5214 90.8075 13.6091C90.7198 13.6968 90.6133 13.7406 90.488 13.7406H88.6276C88.5023 13.7406 88.3958 13.6968 88.3081 13.6091C88.2204 13.5214 88.1766 13.4086 88.1766 13.2708V8.06536C88.1766 7.55171 88.1014 7.15081 87.9511 6.86266C87.8008 6.56198 87.6003 6.34901 87.3497 6.22373C87.1117 6.09844 86.8424 6.0358 86.5417 6.0358C86.2786 6.0358 86.0218 6.09844 85.7712 6.22373C85.5332 6.34901 85.3327 6.56198 85.1698 6.86266C85.0195 7.15081 84.9443 7.55171 84.9443 8.06536V13.2708C84.9443 13.4086 84.9005 13.5214 84.8128 13.6091C84.7251 13.6968 84.6123 13.7406 84.4745 13.7406H82.6329C82.4951 13.7406 82.3823 13.6968 82.2946 13.6091C82.2069 13.5214 82.1631 13.4086 82.1631 13.2708V8.06536C82.1631 7.55171 82.0879 7.15081 81.9376 6.86266C81.7873 6.56198 81.5868 6.34901 81.3362 6.22373C81.0982 6.09844 80.8351 6.0358 80.547 6.0358C80.2839 6.0358 80.0271 6.10471 79.7765 6.24252C79.5259 6.3678 79.3192 6.57451 79.1563 6.86266C79.006 7.15081 78.9308 7.54544 78.9308 8.04657V13.2708C78.9308 13.4086 78.887 13.5214 78.7993 13.6091C78.7116 13.6968 78.6051 13.7406 78.4798 13.7406H76.5818ZM97.5761 13.9285C96.1353 13.9285 94.989 13.5276 94.1371 12.7258C93.2977 11.924 92.853 10.7589 92.8029 9.23048C92.8029 9.13025 92.8029 8.99871 92.8029 8.83584C92.8029 8.66045 92.8029 8.52264 92.8029 8.42241C92.853 7.45775 93.0722 6.63089 93.4606 5.94184C93.849 5.24027 94.3939 4.70782 95.0955 4.34451C95.7971 3.96866 96.6177 3.78074 97.5573 3.78074C98.6096 3.78074 99.4866 3.99998 100.188 4.43847C100.902 4.86442 101.435 5.45325 101.786 6.20493C102.149 6.94409 102.33 7.79601 102.33 8.76067V9.19289C102.33 9.31817 102.28 9.42466 102.18 9.51236C102.092 9.60006 101.986 9.6439 101.861 9.6439H95.7156C95.7156 9.65643 95.7156 9.68149 95.7156 9.71907C95.7156 9.74413 95.7156 9.76918 95.7156 9.79424C95.7282 10.1951 95.8033 10.5647 95.9412 10.903C96.0915 11.2287 96.2982 11.4918 96.5613 11.6923C96.8369 11.8927 97.1626 11.9929 97.5385 11.9929C97.8517 11.9929 98.1085 11.9491 98.309 11.8614C98.5094 11.7737 98.6723 11.6672 98.7976 11.5419C98.9354 11.4166 99.0356 11.3101 99.0982 11.2224C99.211 11.0972 99.2987 11.022 99.3613 10.9969C99.4365 10.9594 99.5493 10.9406 99.6996 10.9406H101.654C101.779 10.9406 101.879 10.9781 101.955 11.0533C102.042 11.116 102.08 11.2099 102.067 11.3352C102.055 11.5357 101.948 11.7862 101.748 12.0869C101.56 12.375 101.278 12.6632 100.902 12.9513C100.526 13.2269 100.057 13.4587 99.4929 13.6466C98.9416 13.8346 98.3027 13.9285 97.5761 13.9285ZM95.7156 7.93381H99.3989V7.89623C99.3989 7.44522 99.3237 7.05685 99.1734 6.73111C99.0356 6.39286 98.8289 6.12976 98.5533 5.94184C98.2776 5.75392 97.9457 5.65996 97.5573 5.65996C97.1689 5.65996 96.8369 5.75392 96.5613 5.94184C96.2857 6.12976 96.0727 6.39286 95.9224 6.73111C95.7846 7.05685 95.7156 7.44522 95.7156 7.89623V7.93381ZM104.66 13.7406C104.535 13.7406 104.428 13.6968 104.341 13.6091C104.253 13.5214 104.209 13.4086 104.209 13.2708V4.43847C104.209 4.30066 104.253 4.18791 104.341 4.10021C104.428 4.01251 104.535 3.96866 104.66 3.96866H106.502C106.639 3.96866 106.752 4.01251 106.84 4.10021C106.928 4.18791 106.971 4.30066 106.971 4.43847V5.17136C107.297 4.77046 107.717 4.43847 108.231 4.17538C108.744 3.91229 109.371 3.78074 110.11 3.78074C110.849 3.78074 111.494 3.94987 112.045 4.28813C112.609 4.61386 113.048 5.09619 113.361 5.73513C113.687 6.36153 113.849 7.12575 113.849 8.02778V13.2708C113.849 13.4086 113.799 13.5214 113.699 13.6091C113.611 13.6968 113.505 13.7406 113.38 13.7406H111.388C111.25 13.7406 111.137 13.6968 111.049 13.6091C110.962 13.5214 110.918 13.4086 110.918 13.2708V8.14053C110.918 7.47654 110.755 6.96288 110.429 6.59957C110.116 6.22373 109.652 6.0358 109.039 6.0358C108.45 6.0358 107.98 6.22373 107.629 6.59957C107.278 6.96288 107.103 7.47654 107.103 8.14053V13.2708C107.103 13.4086 107.059 13.5214 106.971 13.6091C106.884 13.6968 106.777 13.7406 106.652 13.7406H104.66ZM120.689 13.7406C119.912 13.7406 119.248 13.6153 118.697 13.3648C118.146 13.1017 117.726 12.7008 117.438 12.1621C117.162 11.6233 117.024 10.9468 117.024 10.1325V6.18614H115.559C115.421 6.18614 115.308 6.14229 115.22 6.0546C115.133 5.9669 115.089 5.85415 115.089 5.71634V4.43847C115.089 4.30066 115.133 4.18791 115.22 4.10021C115.308 4.01251 115.421 3.96866 115.559 3.96866H117.024V0.867952C117.024 0.730142 117.068 0.61739 117.156 0.529693C117.256 0.441996 117.369 0.398147 117.494 0.398147H119.336C119.474 0.398147 119.586 0.441996 119.674 0.529693C119.762 0.61739 119.806 0.730142 119.806 0.867952V3.96866H122.155C122.28 3.96866 122.386 4.01251 122.474 4.10021C122.562 4.18791 122.606 4.30066 122.606 4.43847V5.71634C122.606 5.85415 122.562 5.9669 122.474 6.0546C122.386 6.14229 122.28 6.18614 122.155 6.18614H119.806V9.90699C119.806 10.3831 119.887 10.7589 120.05 11.0345C120.225 11.2976 120.526 11.4292 120.952 11.4292H122.324C122.449 11.4292 122.556 11.473 122.643 11.5607C122.731 11.6484 122.775 11.7549 122.775 11.8802V13.2708C122.775 13.4086 122.731 13.5214 122.643 13.6091C122.556 13.6968 122.449 13.7406 122.324 13.7406H120.689Z" fill="#00920E"/>
<path d="M129.238 13.7406C129.1 13.7406 128.988 13.6968 128.9 13.6091C128.812 13.5214 128.768 13.4086 128.768 13.2708V1.05587C128.768 0.918064 128.812 0.805311 128.9 0.717615C128.988 0.629918 129.1 0.586069 129.238 0.586069H137.751C137.889 0.586069 138.002 0.629918 138.089 0.717615C138.177 0.805311 138.221 0.918064 138.221 1.05587V2.55925C138.221 2.68453 138.177 2.79102 138.089 2.87872C138.002 2.96641 137.889 3.01026 137.751 3.01026H131.662V5.96063H137.338C137.476 5.96063 137.588 6.00448 137.676 6.09218C137.764 6.17988 137.808 6.29263 137.808 6.43044V7.82106C137.808 7.94634 137.764 8.05283 137.676 8.14053C137.588 8.22823 137.476 8.27207 137.338 8.27207H131.662V11.3164H137.901C138.039 11.3164 138.152 11.3603 138.24 11.448C138.327 11.5357 138.371 11.6484 138.371 11.7862V13.2708C138.371 13.4086 138.327 13.5214 138.24 13.6091C138.152 13.6968 138.039 13.7406 137.901 13.7406H129.238ZM143.97 13.9285C143.344 13.9285 142.787 13.8283 142.298 13.6278C141.809 13.4149 141.396 13.1142 141.058 12.7258C140.719 12.3249 140.463 11.8551 140.287 11.3164C140.112 10.7652 140.005 10.1576 139.968 9.49357C139.955 9.25553 139.949 9.04255 139.949 8.85463C139.949 8.65418 139.955 8.4412 139.968 8.2157C139.993 7.56424 140.093 6.96915 140.268 6.43044C140.456 5.89173 140.713 5.42819 141.039 5.03982C141.377 4.63892 141.791 4.33198 142.279 4.119C142.78 3.89349 143.344 3.78074 143.97 3.78074C144.622 3.78074 145.179 3.89349 145.643 4.119C146.106 4.33198 146.489 4.61386 146.789 4.96465V0.867952C146.789 0.730142 146.833 0.61739 146.921 0.529693C147.009 0.441996 147.121 0.398147 147.259 0.398147H149.195C149.32 0.398147 149.426 0.441996 149.514 0.529693C149.602 0.61739 149.646 0.730142 149.646 0.867952V13.2708C149.646 13.4086 149.602 13.5214 149.514 13.6091C149.426 13.6968 149.32 13.7406 149.195 13.7406H147.391C147.265 13.7406 147.159 13.6968 147.071 13.6091C146.983 13.5214 146.94 13.4086 146.94 13.2708V12.6319C146.626 13.0077 146.232 13.3209 145.756 13.5715C145.28 13.8095 144.685 13.9285 143.97 13.9285ZM144.835 11.6735C145.298 11.6735 145.668 11.567 145.944 11.354C146.232 11.141 146.438 10.8717 146.564 10.5459C146.702 10.2202 146.777 9.86941 146.789 9.49357C146.814 9.25553 146.827 9.0175 146.827 8.77946C146.827 8.54143 146.814 8.30966 146.789 8.08415C146.777 7.73336 146.702 7.40763 146.564 7.10696C146.426 6.79376 146.213 6.53693 145.925 6.33648C145.649 6.13603 145.286 6.0358 144.835 6.0358C144.359 6.0358 143.983 6.14229 143.707 6.35527C143.432 6.55572 143.231 6.82508 143.106 7.16333C142.993 7.50159 142.924 7.87117 142.899 8.27207C142.862 8.66045 142.862 9.04882 142.899 9.43719C142.924 9.83809 142.993 10.2077 143.106 10.5459C143.231 10.8842 143.432 11.1598 143.707 11.3728C143.983 11.5732 144.359 11.6735 144.835 11.6735ZM152.485 13.7406C152.359 13.7406 152.253 13.6968 152.165 13.6091C152.077 13.5214 152.034 13.4086 152.034 13.2708V4.43847C152.034 4.30066 152.077 4.18791 152.165 4.10021C152.253 4.01251 152.359 3.96866 152.485 3.96866H154.364C154.502 3.96866 154.614 4.01251 154.702 4.10021C154.79 4.18791 154.834 4.30066 154.834 4.43847V13.2708C154.834 13.4086 154.79 13.5214 154.702 13.6091C154.614 13.6968 154.502 13.7406 154.364 13.7406H152.485ZM152.428 2.46529C152.303 2.46529 152.196 2.42144 152.109 2.33374C152.021 2.24605 151.977 2.13329 151.977 1.99548V0.492108C151.977 0.354299 152.021 0.241546 152.109 0.153849C152.196 0.0536242 152.303 0.00351196 152.428 0.00351196H154.401C154.539 0.00351196 154.652 0.0536242 154.74 0.153849C154.84 0.241546 154.89 0.354299 154.89 0.492108V1.99548C154.89 2.13329 154.84 2.24605 154.74 2.33374C154.652 2.42144 154.539 2.46529 154.401 2.46529H152.428ZM161.889 13.7406C161.112 13.7406 160.448 13.6153 159.897 13.3648C159.345 13.1017 158.926 12.7008 158.637 12.1621C158.362 11.6233 158.224 10.9468 158.224 10.1325V6.18614H156.758C156.62 6.18614 156.508 6.14229 156.42 6.0546C156.332 5.9669 156.288 5.85415 156.288 5.71634V4.43847C156.288 4.30066 156.332 4.18791 156.42 4.10021C156.508 4.01251 156.62 3.96866 156.758 3.96866H158.224V0.867952C158.224 0.730142 158.268 0.61739 158.356 0.529693C158.456 0.441996 158.569 0.398147 158.694 0.398147H160.535C160.673 0.398147 160.786 0.441996 160.874 0.529693C160.961 0.61739 161.005 0.730142 161.005 0.867952V3.96866H163.354C163.48 3.96866 163.586 4.01251 163.674 4.10021C163.761 4.18791 163.805 4.30066 163.805 4.43847V5.71634C163.805 5.85415 163.761 5.9669 163.674 6.0546C163.586 6.14229 163.48 6.18614 163.354 6.18614H161.005V9.90699C161.005 10.3831 161.087 10.7589 161.25 11.0345C161.425 11.2976 161.726 11.4292 162.152 11.4292H163.523C163.649 11.4292 163.755 11.473 163.843 11.5607C163.931 11.6484 163.974 11.7549 163.974 11.8802V13.2708C163.974 13.4086 163.931 13.5214 163.843 13.6091C163.755 13.6968 163.649 13.7406 163.523 13.7406H161.889ZM170.086 13.9285C169.047 13.9285 168.176 13.7594 167.474 13.4211C166.773 13.0703 166.234 12.5755 165.858 11.9366C165.495 11.2976 165.294 10.5522 165.257 9.70028C165.244 9.44972 165.238 9.16783 165.238 8.85463C165.238 8.5289 165.244 8.24702 165.257 8.00898C165.294 7.14454 165.507 6.39912 165.896 5.77271C166.284 5.13378 166.829 4.64518 167.531 4.30692C168.232 3.95613 169.084 3.78074 170.086 3.78074C171.076 3.78074 171.922 3.95613 172.623 4.30692C173.325 4.64518 173.87 5.13378 174.258 5.77271C174.647 6.39912 174.86 7.14454 174.897 8.00898C174.922 8.24702 174.935 8.5289 174.935 8.85463C174.935 9.16783 174.922 9.44972 174.897 9.70028C174.86 10.5522 174.653 11.2976 174.277 11.9366C173.914 12.5755 173.381 13.0703 172.68 13.4211C171.978 13.7594 171.114 13.9285 170.086 13.9285ZM170.086 11.8614C170.7 11.8614 171.164 11.6735 171.477 11.2976C171.79 10.9092 171.959 10.3455 171.984 9.60632C171.997 9.4184 172.003 9.16783 172.003 8.85463C172.003 8.54143 171.997 8.29087 171.984 8.10294C171.959 7.37631 171.79 6.81881 171.477 6.43044C171.164 6.04207 170.7 5.84788 170.086 5.84788C169.473 5.84788 169.003 6.04207 168.677 6.43044C168.364 6.81881 168.195 7.37631 168.17 8.10294C168.157 8.29087 168.151 8.54143 168.151 8.85463C168.151 9.16783 168.157 9.4184 168.17 9.60632C168.195 10.3455 168.364 10.9092 168.677 11.2976C169.003 11.6735 169.473 11.8614 170.086 11.8614ZM177.351 13.7406C177.226 13.7406 177.119 13.6968 177.032 13.6091C176.944 13.5214 176.9 13.4086 176.9 13.2708V4.43847C176.9 4.31319 176.944 4.2067 177.032 4.119C177.119 4.01878 177.226 3.96866 177.351 3.96866H179.193C179.318 3.96866 179.425 4.01878 179.512 4.119C179.613 4.2067 179.663 4.31319 179.663 4.43847V5.19016C179.976 4.80178 180.358 4.50111 180.809 4.28813C181.273 4.07515 181.805 3.96866 182.406 3.96866H183.214C183.34 3.96866 183.446 4.01251 183.534 4.10021C183.622 4.18791 183.665 4.30066 183.665 4.43847V6.0546C183.665 6.19241 183.622 6.30516 183.534 6.39285C183.446 6.48055 183.34 6.5244 183.214 6.5244H181.561C181.009 6.5244 180.577 6.681 180.264 6.99421C179.951 7.29488 179.794 7.7271 179.794 8.29087V13.2708C179.794 13.4086 179.75 13.5214 179.663 13.6091C179.575 13.6968 179.462 13.7406 179.324 13.7406H177.351Z" fill="#0037F9"/>
</svg>
