<svg width="42" height="43" viewBox="0 0 42 43" fill="none" xmlns="http://www.w3.org/2000/svg">
<g clip-path="url(#clip0_17_562)">
<rect x="0.431152" y="0.849976" width="41.5406" height="41.5406" rx="6.23109" fill="white"/>
<g clip-path="url(#clip1_17_562)">
<rect width="20.7703" height="20.7703" transform="translate(0.431152 0.849976)" fill="#E80000"/>
<path d="M16.4648 9.35048H14.5708C13.0175 9.35048 11.7526 8.08559 11.7526 6.53234V4.63829C11.7526 4.27783 11.4577 3.98291 11.0973 3.98291H8.31844C6.29987 3.98291 4.66797 5.29367 4.66797 7.63338V15.0579C4.66797 17.3976 6.29987 18.7084 8.31844 18.7084H13.4697C15.4883 18.7084 17.1202 17.3976 17.1202 15.0579V10.0059C17.1202 9.6454 16.8253 9.35048 16.4648 9.35048Z" fill="white"/>
<path opacity="0.5" d="M13.3844 4.1205C13.1157 3.8518 12.6504 4.0353 12.6504 4.40887V6.69615C12.6504 7.65301 13.4631 8.44602 14.4527 8.44602C15.0753 8.45257 15.9404 8.45257 16.681 8.45257C17.0546 8.45257 17.2512 8.01347 16.989 7.75131C16.0453 6.80101 14.3544 5.09047 13.3844 4.1205Z" fill="white"/>
<path d="M7.12558 15.4771C7.09278 15.4771 7.06593 15.4666 7.04506 15.4457C7.02418 15.4249 7.01374 15.398 7.01374 15.3652V12.4574C7.01374 12.4246 7.02418 12.3977 7.04506 12.3768C7.06593 12.356 7.09278 12.3455 7.12558 12.3455H8.34688C8.58845 12.3455 8.79722 12.3828 8.97318 12.4574C9.15213 12.5319 9.29081 12.6453 9.38923 12.7974C9.49063 12.9465 9.54133 13.1329 9.54133 13.3566C9.54133 13.5832 9.49063 13.7711 9.38923 13.9202C9.29081 14.0664 9.15213 14.1752 8.97318 14.2468C8.79722 14.3184 8.58845 14.3542 8.34688 14.3542H7.74741V15.3652C7.74741 15.398 7.73698 15.4249 7.7161 15.4457C7.69522 15.4666 7.66838 15.4771 7.63557 15.4771H7.12558ZM7.73399 13.7994H8.32451C8.47661 13.7994 8.59442 13.7622 8.67792 13.6876C8.76441 13.613 8.80766 13.5012 8.80766 13.3521C8.80766 13.2209 8.76889 13.1135 8.69134 13.03C8.61678 12.9465 8.49451 12.9047 8.32451 12.9047H7.73399V13.7994ZM10.1094 15.4771C10.0766 15.4771 10.0498 15.4666 10.0289 15.4457C10.008 15.4249 9.9976 15.398 9.9976 15.3652V12.4574C9.9976 12.4246 10.008 12.3977 10.0289 12.3768C10.0498 12.356 10.0766 12.3455 10.1094 12.3455H11.2323C11.5306 12.3455 11.7796 12.3932 11.9794 12.4887C12.1792 12.5811 12.3313 12.7183 12.4357 12.9003C12.5431 13.0792 12.5997 13.3014 12.6057 13.5668C12.6087 13.698 12.6102 13.8129 12.6102 13.9113C12.6102 14.0097 12.6087 14.123 12.6057 14.2513C12.5968 14.5286 12.5416 14.7583 12.4402 14.9402C12.3388 15.1221 12.1897 15.2578 11.9928 15.3473C11.796 15.4338 11.5499 15.4771 11.2547 15.4771H10.1094ZM10.7089 14.9H11.2323C11.3814 14.9 11.5037 14.8776 11.5992 14.8329C11.6946 14.7881 11.7647 14.718 11.8094 14.6226C11.8571 14.5242 11.8825 14.3974 11.8855 14.2423C11.8884 14.1558 11.8899 14.0783 11.8899 14.0097C11.8929 13.9411 11.8929 13.8725 11.8899 13.8039C11.8899 13.7353 11.8884 13.6593 11.8855 13.5758C11.8795 13.3521 11.8213 13.1881 11.711 13.0837C11.6036 12.9763 11.4366 12.9226 11.2099 12.9226H10.7089V14.9ZM13.2812 15.4771C13.2484 15.4771 13.2215 15.4666 13.2006 15.4457C13.1798 15.4249 13.1693 15.398 13.1693 15.3652V12.4574C13.1693 12.4246 13.1798 12.3977 13.2006 12.3768C13.2215 12.356 13.2484 12.3455 13.2812 12.3455H15.2764C15.3092 12.3455 15.336 12.356 15.3569 12.3768C15.3778 12.3977 15.3882 12.4246 15.3882 12.4574V12.8376C15.3882 12.8704 15.3778 12.8973 15.3569 12.9181C15.336 12.939 15.3092 12.9495 15.2764 12.9495H13.8672V13.7055H15.1869C15.2197 13.7055 15.2466 13.7159 15.2674 13.7368C15.2883 13.7577 15.2988 13.7845 15.2988 13.8173V14.1976C15.2988 14.2274 15.2883 14.2528 15.2674 14.2737C15.2466 14.2945 15.2197 14.305 15.1869 14.305H13.8672V15.3652C13.8672 15.398 13.8568 15.4249 13.8359 15.4457C13.815 15.4666 13.7882 15.4771 13.7554 15.4771H13.2812Z" fill="#E80000"/>
</g>
<g clip-path="url(#clip2_17_562)">
<rect width="20.7703" height="20.7703" transform="translate(0.431152 21.6204)" fill="#0037F9"/>
<path d="M16.4648 30.1207H14.5708C13.0175 30.1207 11.7526 28.8559 11.7526 27.3026V25.4086C11.7526 25.0481 11.4577 24.7532 11.0973 24.7532H8.31844C6.29987 24.7532 4.66797 26.0639 4.66797 28.4036V35.8282C4.66797 38.1679 6.29987 39.4786 8.31844 39.4786H13.4697C15.4883 39.4786 17.1202 38.1679 17.1202 35.8282V30.7761C17.1202 30.4157 16.8253 30.1207 16.4648 30.1207Z" fill="white"/>
<path opacity="0.5" d="M13.3844 24.8908C13.1157 24.6221 12.6504 24.8056 12.6504 25.1791V27.4664C12.6504 28.4233 13.4631 29.2163 14.4527 29.2163C15.0753 29.2228 15.9404 29.2228 16.681 29.2228C17.0546 29.2228 17.2512 28.7837 16.989 28.5216C16.0453 27.5713 14.3544 25.8607 13.3844 24.8908Z" fill="white"/>
<path d="M7.11325 36.2474C7.08044 36.2474 7.0536 36.237 7.03273 36.2161C7.01185 36.1952 7.00141 36.1684 7.00141 36.1356V33.2278C7.00141 33.1949 7.01185 33.1681 7.03273 33.1472C7.0536 33.1264 7.08044 33.1159 7.11325 33.1159H8.23613C8.53437 33.1159 8.7834 33.1636 8.98322 33.2591C9.18304 33.3515 9.33514 33.4887 9.43953 33.6706C9.54689 33.8496 9.60356 34.0718 9.60952 34.3372C9.61251 34.4684 9.614 34.5833 9.614 34.6817C9.614 34.7801 9.61251 34.8934 9.60952 35.0217C9.60058 35.299 9.5454 35.5287 9.444 35.7106C9.3426 35.8925 9.19348 36.0282 8.99664 36.1177C8.7998 36.2042 8.55375 36.2474 8.25849 36.2474H7.11325ZM7.71271 35.6703H8.23613C8.38525 35.6703 8.50753 35.648 8.60296 35.6032C8.6984 35.5585 8.76849 35.4884 8.81322 35.393C8.86094 35.2946 8.88629 35.1678 8.88927 35.0127C8.89226 34.9262 8.89375 34.8487 8.89375 34.7801C8.89673 34.7115 8.89673 34.6429 8.89375 34.5743C8.89375 34.5057 8.89226 34.4297 8.88927 34.3462C8.88331 34.1225 8.82515 33.9584 8.7148 33.8541C8.60744 33.7467 8.44042 33.693 8.21376 33.693H7.71271V35.6703ZM11.4168 36.2922C11.1454 36.2922 10.9113 36.2474 10.7144 36.158C10.5176 36.0685 10.364 35.9343 10.2537 35.7553C10.1433 35.5734 10.0837 35.3453 10.0747 35.0709C10.0717 34.9426 10.0702 34.8159 10.0702 34.6906C10.0702 34.5624 10.0717 34.4326 10.0747 34.3014C10.0837 34.033 10.1433 33.8078 10.2537 33.6259C10.367 33.441 10.5221 33.3023 10.7189 33.2099C10.9187 33.1174 11.1514 33.0712 11.4168 33.0712C11.6792 33.0712 11.9089 33.1174 12.1057 33.2099C12.3055 33.3023 12.4621 33.441 12.5755 33.6259C12.6888 33.8078 12.7484 34.033 12.7544 34.3014C12.7604 34.4326 12.7633 34.5624 12.7633 34.6906C12.7633 34.8159 12.7604 34.9426 12.7544 35.0709C12.7455 35.3453 12.6858 35.5734 12.5755 35.7553C12.4651 35.9343 12.3115 36.0685 12.1147 36.158C11.9178 36.2474 11.6852 36.2922 11.4168 36.2922ZM11.4168 35.7151C11.5898 35.7151 11.7314 35.6629 11.8418 35.5585C11.9551 35.4511 12.0148 35.2811 12.0207 35.0485C12.0267 34.9173 12.0297 34.795 12.0297 34.6817C12.0297 34.5654 12.0267 34.4431 12.0207 34.3148C12.0177 34.1598 11.9894 34.033 11.9357 33.9346C11.882 33.8362 11.8105 33.7646 11.721 33.7198C11.6345 33.6721 11.5331 33.6483 11.4168 33.6483C11.3005 33.6483 11.1976 33.6721 11.1081 33.7198C11.0186 33.7646 10.9471 33.8362 10.8934 33.9346C10.8427 34.033 10.8143 34.1598 10.8084 34.3148C10.8054 34.4431 10.8039 34.5654 10.8039 34.6817C10.8039 34.795 10.8054 34.9173 10.8084 35.0485C10.8173 35.2811 10.877 35.4511 10.9873 35.5585C11.0977 35.6629 11.2408 35.7151 11.4168 35.7151ZM14.5623 36.2922C14.2819 36.2922 14.0434 36.2459 13.8465 36.1535C13.6527 36.0581 13.502 35.9209 13.3947 35.7419C13.2873 35.56 13.2277 35.3393 13.2157 35.0798C13.2128 34.9575 13.2113 34.8263 13.2113 34.6861C13.2113 34.546 13.2128 34.4118 13.2157 34.2835C13.2277 34.027 13.2873 33.8093 13.3947 33.6304C13.505 33.4485 13.6586 33.3098 13.8555 33.2143C14.0523 33.1189 14.2879 33.0712 14.5623 33.0712C14.7621 33.0712 14.944 33.0965 15.1081 33.1472C15.2721 33.1979 15.4138 33.271 15.5331 33.3664C15.6524 33.4619 15.7448 33.5737 15.8104 33.702C15.876 33.8302 15.9118 33.9734 15.9178 34.1314C15.9178 34.1583 15.9074 34.1806 15.8865 34.1985C15.8686 34.2164 15.8462 34.2254 15.8194 34.2254H15.3094C15.2736 34.2254 15.2453 34.2164 15.2244 34.1985C15.2035 34.1806 15.1871 34.1508 15.1752 34.1091C15.1304 33.9331 15.0559 33.8123 14.9515 33.7467C14.8471 33.6811 14.7174 33.6483 14.5623 33.6483C14.3774 33.6483 14.2312 33.699 14.1239 33.8004C14.0165 33.9018 13.9584 34.0703 13.9494 34.3059C13.9405 34.5504 13.9405 34.801 13.9494 35.0575C13.9584 35.2931 14.0165 35.4616 14.1239 35.563C14.2312 35.6644 14.3774 35.7151 14.5623 35.7151C14.7174 35.7151 14.8471 35.6823 14.9515 35.6167C15.0589 35.5481 15.1334 35.4273 15.1752 35.2543C15.1871 35.2096 15.2035 35.1797 15.2244 35.1648C15.2453 35.1469 15.2736 35.138 15.3094 35.138H15.8194C15.8462 35.138 15.8686 35.1469 15.8865 35.1648C15.9074 35.1827 15.9178 35.2051 15.9178 35.2319C15.9118 35.39 15.876 35.5332 15.8104 35.6614C15.7448 35.7896 15.6524 35.9015 15.5331 35.9969C15.4138 36.0924 15.2721 36.1654 15.1081 36.2161C14.944 36.2668 14.7621 36.2922 14.5623 36.2922Z" fill="#0037F9"/>
</g>
<g clip-path="url(#clip3_17_562)">
<rect width="20.7703" height="20.7703" transform="translate(21.2017 0.849976)" fill="#FA5C1E"/>
<path d="M37.2353 9.35048H35.3413C33.788 9.35048 32.5231 8.08559 32.5231 6.53234V4.63829C32.5231 4.27783 32.2282 3.98291 31.8678 3.98291H29.0889C27.0704 3.98291 25.4385 5.29367 25.4385 7.63338V15.0579C25.4385 17.3976 27.0704 18.7084 29.0889 18.7084H34.2402C36.2588 18.7084 37.8907 17.3976 37.8907 15.0579V10.0059C37.8907 9.6454 37.5958 9.35048 37.2353 9.35048Z" fill="white"/>
<path opacity="0.5" d="M34.1549 4.1205C33.8862 3.8518 33.4209 4.0353 33.4209 4.40887V6.69615C33.4209 7.65301 34.2336 8.44602 35.2232 8.44602C35.8458 8.45257 36.7109 8.45257 37.4515 8.45257C37.8251 8.45257 38.0217 8.01347 37.7595 7.75131C36.8158 6.80101 35.1249 5.09047 34.1549 4.1205Z" fill="white"/>
<path d="M28.0536 15.4771C28.0208 15.4771 27.994 15.4666 27.9731 15.4457C27.9522 15.4249 27.9418 15.398 27.9418 15.3652V12.4574C27.9418 12.4246 27.9522 12.3977 27.9731 12.3768C27.994 12.356 28.0208 12.3455 28.0536 12.3455H29.2749C29.5165 12.3455 29.7252 12.3828 29.9012 12.4574C30.0801 12.5319 30.2188 12.6453 30.3172 12.7974C30.4186 12.9465 30.4693 13.1329 30.4693 13.3566C30.4693 13.5832 30.4186 13.7711 30.3172 13.9202C30.2188 14.0664 30.0801 14.1752 29.9012 14.2468C29.7252 14.3184 29.5165 14.3542 29.2749 14.3542H28.6754V15.3652C28.6754 15.398 28.665 15.4249 28.6441 15.4457C28.6232 15.4666 28.5964 15.4771 28.5636 15.4771H28.0536ZM28.662 13.7994H29.2525C29.4046 13.7994 29.5224 13.7622 29.6059 13.6876C29.6924 13.613 29.7357 13.5012 29.7357 13.3521C29.7357 13.2209 29.6969 13.1135 29.6194 13.03C29.5448 12.9465 29.4225 12.9047 29.2525 12.9047H28.662V13.7994ZM31.0375 15.4771C31.0047 15.4771 30.9778 15.4666 30.9569 15.4457C30.9361 15.4249 30.9256 15.398 30.9256 15.3652V12.4574C30.9256 12.4246 30.9361 12.3977 30.9569 12.3768C30.9778 12.356 31.0047 12.3455 31.0375 12.3455H32.2588C32.5003 12.3455 32.7091 12.3828 32.8851 12.4574C33.064 12.5319 33.2027 12.6453 33.3011 12.7974C33.4025 12.9465 33.4532 13.1329 33.4532 13.3566C33.4532 13.5832 33.4025 13.7711 33.3011 13.9202C33.2027 14.0664 33.064 14.1752 32.8851 14.2468C32.7091 14.3184 32.5003 14.3542 32.2588 14.3542H31.6593V15.3652C31.6593 15.398 31.6489 15.4249 31.628 15.4457C31.6071 15.4666 31.5803 15.4771 31.5474 15.4771H31.0375ZM31.6459 13.7994H32.2364C32.3885 13.7994 32.5063 13.7622 32.5898 13.6876C32.6763 13.613 32.7195 13.5012 32.7195 13.3521C32.7195 13.2209 32.6808 13.1135 32.6032 13.03C32.5287 12.9465 32.4064 12.9047 32.2364 12.9047H31.6459V13.7994ZM34.7103 15.4771C34.6774 15.4771 34.6506 15.4666 34.6297 15.4457C34.6089 15.4249 34.5984 15.398 34.5984 15.3652V12.9674H33.7842C33.7544 12.9674 33.729 12.9569 33.7082 12.936C33.6873 12.9152 33.6769 12.8898 33.6769 12.86V12.4574C33.6769 12.4246 33.6873 12.3977 33.7082 12.3768C33.729 12.356 33.7544 12.3455 33.7842 12.3455H36.1284C36.1612 12.3455 36.188 12.356 36.2089 12.3768C36.2298 12.3977 36.2402 12.4246 36.2402 12.4574V12.86C36.2402 12.8898 36.2298 12.9152 36.2089 12.936C36.188 12.9569 36.1612 12.9674 36.1284 12.9674H35.3187V15.3652C35.3187 15.398 35.3082 15.4249 35.2873 15.4457C35.2665 15.4666 35.2396 15.4771 35.2068 15.4771H34.7103Z" fill="#FA5C1E"/>
</g>
<g clip-path="url(#clip4_17_562)">
<rect width="20.7703" height="20.7703" transform="translate(21.2017 21.6204)" fill="#00920E"/>
<path d="M37.2353 30.1207H35.3413C33.788 30.1207 32.5231 28.8559 32.5231 27.3026V25.4086C32.5231 25.0481 32.2282 24.7532 31.8678 24.7532H29.0889C27.0704 24.7532 25.4385 26.0639 25.4385 28.4036V35.8282C25.4385 38.1679 27.0704 39.4786 29.0889 39.4786H34.2402C36.2588 39.4786 37.8907 38.1679 37.8907 35.8282V30.7761C37.8907 30.4157 37.5958 30.1207 37.2353 30.1207Z" fill="white"/>
<path opacity="0.5" d="M34.1549 24.8908C33.8862 24.6221 33.4209 24.8056 33.4209 25.1791V27.4664C33.4209 28.4233 34.2336 29.2163 35.2232 29.2163C35.8458 29.2228 36.7109 29.2228 37.4515 29.2228C37.8251 29.2228 38.0217 28.7837 37.7595 28.5216C36.8158 27.5713 35.1249 25.8607 34.1549 24.8908Z" fill="white"/>
<path d="M27.9315 36.2474C27.9046 36.2474 27.8822 36.2385 27.8643 36.2206C27.8465 36.1997 27.8375 36.1774 27.8375 36.1535C27.8375 36.1445 27.839 36.1356 27.842 36.1266C27.845 36.1177 27.8479 36.1088 27.8509 36.0998L28.8396 34.6504L27.918 33.2635C27.9091 33.2456 27.9046 33.2278 27.9046 33.2099C27.9046 33.186 27.9136 33.1651 27.9315 33.1472C27.9493 33.1264 27.9717 33.1159 27.9986 33.1159H28.5488C28.5876 33.1159 28.6174 33.1264 28.6383 33.1472C28.6621 33.1681 28.68 33.1875 28.692 33.2054L29.2914 34.0956L29.8954 33.2054C29.9073 33.1875 29.9252 33.1681 29.949 33.1472C29.9729 33.1264 30.0042 33.1159 30.043 33.1159H30.5664C30.5903 33.1159 30.6111 33.1264 30.629 33.1472C30.6499 33.1651 30.6604 33.186 30.6604 33.2099C30.6604 33.2307 30.6544 33.2486 30.6425 33.2635L29.7209 34.6459L30.714 36.0998C30.72 36.1088 30.723 36.1177 30.723 36.1266C30.726 36.1356 30.7275 36.1445 30.7275 36.1535C30.7275 36.1774 30.7185 36.1997 30.7006 36.2206C30.6827 36.2385 30.6604 36.2474 30.6335 36.2474H30.0654C30.0266 36.2474 29.9953 36.237 29.9714 36.2161C29.9505 36.1952 29.9341 36.1774 29.9222 36.1624L29.2691 35.223L28.6204 36.1624C28.6114 36.1774 28.595 36.1952 28.5712 36.2161C28.5503 36.237 28.519 36.2474 28.4772 36.2474H27.9315ZM31.2365 36.2474C31.2037 36.2474 31.1768 36.237 31.1559 36.2161C31.1351 36.1952 31.1246 36.1684 31.1246 36.1356V33.2278C31.1246 33.1949 31.1351 33.1681 31.1559 33.1472C31.1768 33.1264 31.2037 33.1159 31.2365 33.1159H31.733C31.7658 33.1159 31.7927 33.1264 31.8136 33.1472C31.8344 33.1681 31.8449 33.1949 31.8449 33.2278V35.648H33.2317C33.2645 35.648 33.2913 35.6584 33.3122 35.6793C33.3331 35.7002 33.3435 35.727 33.3435 35.7598V36.1356C33.3435 36.1684 33.3331 36.1952 33.3122 36.2161C33.2913 36.237 33.2645 36.2474 33.2317 36.2474H31.2365ZM34.882 36.2922C34.5957 36.2922 34.3556 36.2504 34.1617 36.1669C33.9708 36.0834 33.8262 35.9745 33.7278 35.8403C33.6294 35.7061 33.5772 35.563 33.5712 35.4109C33.5712 35.387 33.5801 35.3661 33.598 35.3482C33.6159 35.3274 33.6383 35.3169 33.6651 35.3169H34.1438C34.1826 35.3169 34.2124 35.3259 34.2333 35.3438C34.2542 35.3587 34.2736 35.3781 34.2915 35.4019C34.3123 35.4526 34.3451 35.5018 34.3899 35.5496C34.4376 35.5973 34.5017 35.6375 34.5822 35.6703C34.6628 35.7002 34.7627 35.7151 34.882 35.7151C35.0758 35.7151 35.2205 35.6838 35.3159 35.6211C35.4143 35.5585 35.4635 35.4735 35.4635 35.3661C35.4635 35.2886 35.4367 35.226 35.383 35.1782C35.3323 35.1305 35.2503 35.0873 35.137 35.0485C35.0266 35.0097 34.879 34.968 34.6941 34.9232C34.4704 34.8755 34.2795 34.8144 34.1215 34.7398C33.9664 34.6623 33.8486 34.5639 33.768 34.4446C33.6905 34.3223 33.6517 34.1717 33.6517 33.9927C33.6517 33.8138 33.7009 33.6557 33.7994 33.5185C33.8978 33.3784 34.0365 33.2695 34.2154 33.192C34.3943 33.1114 34.6076 33.0712 34.8551 33.0712C35.0549 33.0712 35.2309 33.098 35.383 33.1517C35.5381 33.2054 35.6663 33.2755 35.7677 33.362C35.8721 33.4485 35.9512 33.5409 36.0048 33.6393C36.0585 33.7377 36.0869 33.8332 36.0898 33.9256C36.0898 33.9495 36.0809 33.9719 36.063 33.9927C36.0451 34.0106 36.0227 34.0196 35.9959 34.0196H35.4949C35.465 34.0196 35.4382 34.0136 35.4143 34.0017C35.3905 33.9898 35.3711 33.9689 35.3562 33.9391C35.3383 33.8615 35.2846 33.7944 35.1951 33.7377C35.1086 33.6781 34.9953 33.6483 34.8551 33.6483C34.709 33.6483 34.5927 33.6751 34.5062 33.7288C34.4227 33.7825 34.3809 33.8645 34.3809 33.9748C34.3809 34.0464 34.4018 34.1076 34.4436 34.1583C34.4883 34.206 34.5614 34.2492 34.6628 34.288C34.7671 34.3238 34.9043 34.364 35.0743 34.4088C35.3368 34.4625 35.55 34.5266 35.7141 34.6011C35.8781 34.6757 35.9989 34.7726 36.0764 34.8919C36.154 35.0082 36.1927 35.1559 36.1927 35.3348C36.1927 35.5346 36.1361 35.7061 36.0227 35.8493C35.9124 35.9924 35.7588 36.1028 35.562 36.1803C35.3681 36.2549 35.1414 36.2922 34.882 36.2922Z" fill="#00920E"/>
</g>
<line x1="21.3639" y1="0.931152" x2="21.3639" y2="42.3906" stroke="white" stroke-width="0.324536"/>
<line x1="0.47168" y1="21.4986" x2="41.9312" y2="21.4986" stroke="white" stroke-width="0.324536"/>
</g>
<defs>
<clipPath id="clip0_17_562">
<rect x="0.431152" y="0.849976" width="41.5406" height="41.5406" rx="6.23109" fill="white"/>
</clipPath>
<clipPath id="clip1_17_562">
<rect width="20.7703" height="20.7703" fill="white" transform="translate(0.431152 0.849976)"/>
</clipPath>
<clipPath id="clip2_17_562">
<rect width="20.7703" height="20.7703" fill="white" transform="translate(0.431152 21.6204)"/>
</clipPath>
<clipPath id="clip3_17_562">
<rect width="20.7703" height="20.7703" fill="white" transform="translate(21.2017 0.849976)"/>
</clipPath>
<clipPath id="clip4_17_562">
<rect width="20.7703" height="20.7703" fill="white" transform="translate(21.2017 21.6204)"/>
</clipPath>
</defs>
</svg>
